# xmcd
#
# Track frame offsets:
#	150
#	12807
#	25780
#	38117
#	50910
#	63107
#	76217
#	87315
#	98640
#	111157
#	121917
#	132370
#	144145
#	155675
#	167050
#	180125
#
# Disc length: 2550 seconds
#
# Revision: 1
# Processed by: cddbd v1.5.2PL0 Copyright (c) Steve Scherf et al.
# Submitted via: audiograbber 1.83.01
#
DISCID=bf09f410
DTITLE="Little" Jimmy Dickens - 16 Biggest Hits
DYEAR=1900
DGENRE=country
TTITLE0=Take An Old Cold 'Tater (And Wait)
TTITLE1=Country Boy
TTITLE2=A-Sleepin' At The Foot Of The Bed
TTITLE3=My Heart's Bouquet
TTITLE4=Just When I Needed You
TTITLE5=Hillbilly Fever
TTITLE6=I'm Little But I'm Loud
TTITLE7=Rockin' With Red
TTITLE8=You All Come
TTITLE9=Out Behind The Barn
TTITLE10=Salty Boogie
TTITLE11=Take Me As I Am (Or Let Me Go)
TTITLE12=We Could [Single Version]
TTITLE13=(I Got) A Hole In My Pocket
TTITLE14=The Violet And A Rose
TTITLE15=May The Bird Of Paradise (Fly Up Your Nose)
EXTD=
EXTT0=
EXTT1=
EXTT2=
EXTT3=
EXTT4=
EXTT5=
EXTT6=
EXTT7=
EXTT8=
EXTT9=
EXTT10=
EXTT11=
EXTT12=
EXTT13=
EXTT14=
EXTT15=
PLAYORDER=
